<svg width="400" height="400" viewBox="0 0 400 400" fill="none" xmlns="http://www.w3.org/2000/svg">
  <rect width="400" height="400" fill="white"/>
  <g opacity="0.3">
    <path d="M200 140C186.739 140 174.022 145.268 164.444 154.645C154.867 164.022 149.6 176.739 149.6 190V260H250.4V190C250.4 176.739 245.133 164.022 235.556 154.645C225.978 145.268 213.261 140 200 140Z" stroke="#0A1628" stroke-width="4" stroke-linecap="round" stroke-linejoin="round"/>
    <path d="M170 190V170C170 160.609 173.793 151.652 180.544 145.401C187.295 139.15 196.304 136.2 205.695 136.2C211.813 136.2 217.728 138.211 222.443 141.881C227.158 145.552 230.379 150.65 231.59 156.4" stroke="#0A1628" stroke-width="4" stroke-linecap="round" stroke-linejoin="round"/>
    <circle cx="200" cy="210" r="10" fill="#0A1628"/>
    <path d="M200 220V240" stroke="#0A1628" stroke-width="4" stroke-linecap="round"/>
  </g>
  <text x="200" y="300" text-anchor="middle" fill="#0A1628" opacity="0.5" font-family="system-ui" font-size="16" font-weight="500">Product Image</text>
  <text x="200" y="320" text-anchor="middle" fill="#0A1628" opacity="0.3" font-family="system-ui" font-size="14">Coming Soon</text>
</svg>