<?xml version="1.0" encoding="UTF-8"?>
<!-- Creator: CorelDRAW 2019 -->
<svg xmlns="http://www.w3.org/2000/svg" xmlns:xlink="http://www.w3.org/1999/xlink" xmlns:xodm="http://www.corel.com/coreldraw/odm/2003" xmlns:dc="http://purl.org/dc/elements/1.1/" xmlns:cc="http://creativecommons.org/ns#" xmlns:rdf="http://www.w3.org/1999/02/22-rdf-syntax-ns#" xmlns:svg="http://www.w3.org/2000/svg" xmlns:sodipodi="http://sodipodi.sourceforge.net/DTD/sodipodi-0.dtd" xmlns:inkscape="http://www.inkscape.org/namespaces/inkscape" xml:space="preserve" width="1000px" height="1000px" version="1.1" style="shape-rendering:geometricPrecision; text-rendering:geometricPrecision; image-rendering:optimizeQuality; fill-rule:evenodd; clip-rule:evenodd" viewBox="0 0 100000 100000" sodipodi:docname="suunto-logo.4d82cce.svg" inkscape:version="0.92.4 (5da689c313, 2019-01-14)">
 <defs>
  <style type="text/css">
   <![CDATA[
    .fil0 {fill:none}
    .fil2 {fill:black}
    .fil1 {fill:black;fill-rule:nonzero}
    .fil3 {fill:#EF492E;fill-rule:nonzero}
   ]]>
  </style>
 </defs>
 <g id="Layer_x0020_1">
  <metadata id="CorelCorpID_0Corel-Layer"></metadata>
  <rect class="fil0" width="100000" height="100000"></rect>
  <g id="_740290368">
   <polygon class="fil1" points="21120,47201 26040,47201 26040,50317 29540,50317 29540,47201 34459,47201 34459,46169 21120,46169 "></polygon>
   <path class="fil2" d="M39226 48019c0,-515 347,-830 2192,-830l4100 0c1844,0 2190,315 2190,830l0 447c0,602 -346,832 -2002,832l-4477 0c-1656,0 -2003,-230 -2003,-832l0 -447zm-3594 843c0,1214 1876,1501 5028,1501l5615 0c3153,0 5029,-287 5029,-1501l0 -1238c0,-1215 -1876,-1501 -5029,-1501l-5615 0c-3152,0 -5028,286 -5028,1501l0 1238z"></path>
   <polygon class="fil1" points="53287,50317 56692,50317 56692,47338 56724,47338 61312,50317 63930,50317 68519,47338 68549,47338 68549,50317 71956,50317 71956,46169 66580,46169 62621,48839 58664,46169 53287,46169 "></polygon>
   <polygon class="fil1" points="74360,50317 77861,50317 77861,46169 74360,46169 "></polygon>
   <path class="fil1" d="M80116 48862c0,1214 1877,1501 5030,1501l5644 0c3517,0 4210,-550 4210,-1249l0 -390 -3501 0c0,516 -473,574 -2048,574l-3738 0c-1655,0 -2003,-230 -2003,-832l0 -447c0,-515 348,-830 2193,-830l3815 0c1041,0 1640,86 1640,384l0 115 3501 0c32,-1176 -616,-1564 -5599,-1564l-4114 0c-3153,0 -5030,285 -5030,1500l0 1238 0 0z"></path>
   <path class="fil3" d="M72892 43738c0,-447 1379,-809 3081,-809 1702,0 3082,362 3082,809 0,446 -1380,809 -3082,809 -1702,0 -3081,-363 -3081,-809z"></path>
   <polygon class="fil1" points="12839,47577 8913,50345 5001,50345 11184,46172 15743,46172 22022,50345 18125,50345 17037,49608 11518,49608 12811,48708 15728,48708 14089,47577 "></polygon>
   <path class="fil1" d="M94673 54430c120,-370 189,-1071 -2160,-1071 -1630,0 -2535,515 -2762,1039 -251,584 675,739 1091,791l1310 159c1048,131 1327,244 1175,595 -208,482 -1349,566 -2005,566 -860,0 -1776,-177 -1515,-787l-851 0c-135,315 -144,595 317,854 241,134 646,322 1891,322 1153,0 2726,-220 3070,-1016 230,-534 -312,-797 -1139,-900l-1826 -218c-372,-48 -735,-142 -611,-426 221,-512 1219,-591 1790,-591 758,0 1549,164 1373,683l852 0 0 0z"></path>
   <path class="fil2" d="M82507 54458c111,-562 -557,-1099 -2289,-1099 -1957,0 -3445,715 -3891,1751 -556,1292 728,1788 2253,1788 506,0 2591,-56 3511,-1325l-880 0c-645,783 -1727,923 -2315,923 -1668,0 -1967,-610 -1627,-1401 381,-884 1558,-1334 2776,-1334 646,0 1582,107 1580,697l882 0 0 0z"></path>
   <polygon class="fil1" points="69837,53448 68928,53448 67480,56808 68390,56808 "></polygon>
   <polygon class="fil1" points="55491,53851 57767,53851 56491,56809 57400,56809 58674,53851 60950,53851 61124,53447 55664,53447 "></polygon>
   <path class="fil2" d="M45656 55428l1714 -1479 18 0 356 1479 -2088 0 0 0zm2242 403l243 978 992 0 -986 -3361 -1030 0 -3976 3361 937 0 1122 -978 2698 0z"></path>
   <path class="fil1" d="M35876 53448l-916 2125c-315,730 -1334,923 -2168,923 -814,0 -1617,-202 -1302,-933l912 -2115 -909 0 -966 2242c-270,627 257,1208 2064,1208 1845,0 2956,-581 3253,-1269l940 -2181 -908 0 0 0z"></path>
   <path class="fil2" d="M23227 56799l-763 -355c866,-361 1356,-890 1540,-1316 312,-725 -6,-1769 -2515,-1769 -2509,0 -3727,1044 -4040,1769 -312,726 5,1770 2515,1770 712,0 1329,-85 1829,-225l859 398 0 0 575 -272 0 0zm-2636 -684l586 272c-311,71 -665,109 -1038,109 -1462,0 -2094,-576 -1753,-1368 340,-790 1469,-1367 2930,-1367 1460,0 2092,577 1752,1367 -187,431 -608,801 -1188,1039l-710 -332 -579 280 0 0z"></path>
   <path class="fil2" d="M7514 55428l1715 -1479 19 0 354 1479 -2088 0zm2243 403l243 978 993 0 -986 -3361 -1030 0 -3977 3361 936 0 1124 -978 2697 0 0 0z"></path>
  </g>
 </g>
</svg>
