<?xml version="1.0" encoding="UTF-8"?>
<svg id="SVGRoot" width="400" height="110.38" version="1.1" viewBox="0 0 400 110.37639" xmlns="http://www.w3.org/2000/svg" xmlns:cc="http://creativecommons.org/ns#" xmlns:dc="http://purl.org/dc/elements/1.1/" xmlns:rdf="http://www.w3.org/1999/02/22-rdf-syntax-ns#"><metadata><rdf:RDF><cc:Work rdf:about=""><dc:format>image/svg+xml</dc:format><dc:type rdf:resource="http://purl.org/dc/dcmitype/StillImage"/><dc:title/></cc:Work></rdf:RDF></metadata><g transform="translate(-143.83 -178.69)"><g fill="#0082c4" fill-rule="evenodd"><path d="m209.37 199.24c1.1043 1.6548 5.2514-0.99987 4.6246 2.2402-2.0893 1.5852-4.4455 2.5154-6.4452 3.9282-3.9398 2.7923-7.6988 6.102-11.101 9.8577h-0.4477c-5.4902-5.7206-11.34-9.9954-18.472-12.786-0.4477-0.31007-0.5074-0.99987-0.32832-1.5852 0.92525-1.2751 3.4025-0.0696 4.3278-1.2071l0.26862-20.472c0.95343-0.79259 2.5353-0.10285 3.6396-0.17244 9.5792 1.5852 19.158 8.7551 22.889 18.059z"/><path d="m175.82 179.26c-5.7372 4.0376-9.0004 10.332-7.7751 17.553 1.0844 8.7368 8.5926 14.539 13.909 20.798l20.583 21.51c7.5894 7.5711 9.9191 18.855 6.5248 28.814-3.2317 9.5145-12.784 18.197-22.412 19.951-3.1107 0.24209-6.0208 1.3945-8.9507 0.60689l0.0696-0.30842c4.5218-2.4657 8.1648-7.15 8.4151-12.643 0.38138-8.3952-3.5004-15.111-9.2044-21.075l-24.443-25.453c-8.246-8.7434-10.226-22.504-5.2364-33.362 4.9745-11.237 16.855-17.739 28.335-16.885 0.1426 0.0762 0.19401 0.25205 0.18571 0.49413"/><path d="m154.97 262.86 3.3047 3.2052 0.61683-0.0697c3.5567-3.7905 7.5894-7.7883 11.985-9.8909 0.3648 0 0.41952 0.4477 0.47589 0.75777l0.39298 31.362c-0.61683 1.4144-2.1573 0.58699-3.2483 0.65498-9.2426-0.96339-18.483-8.2029-21.788-17.747-1.5968-4.4472-2.3811-9.3072-2.8852-14.27 0.0564-1.1375 1.1756-0.62014 1.7079-0.4477 3.3611 1.5172 6.3856 4.0326 9.4382 6.4452"/></g><g><g fill-rule="evenodd"><path d="m241.27 238.23c1.4459 1.7527 1.4459 2.338 4.0956 2.532 1.4443 0.19566 4.5765-0.194 4.5765-1.5587 0-1.557-2.8902-2.1423-4.8169-2.1423-9.6355 0-15.898-2.1423-15.898-8.1813 0-2.532 1.9268-4.87 5.0574-6.4286 3.1323-1.363 7.2262-1.9483 11.081-1.9483 6.7454 0 15.656 1.363 15.175 8.377l-11.803-0.19565c-1.4459-1.7527-2.6497-1.9467-4.5782-1.9467-1.6847 0-3.1306 0.194-3.1306 1.5587 0 1.363 2.6497 1.363 4.3361 1.751 3.6131 0.39133 8.1896 0.39133 11.803 1.5603 3.6131 1.363 4.5765 3.701 4.8186 6.427 0 6.8183-9.1547 8.9623-17.344 8.9623s-15.416-1.3647-16.139-8.7667z"/><path d="m301.56 236.55c-0.72295 7.7121-8.1846 10.877-17.333 10.877-13 0-17.814-5.9329-17.814-13.252 0-7.3158 5.5366-13.842 17.814-13.842 9.8693 0 16.61 2.3728 17.091 10.481l-11.554 0.19732c-0.24044-2.1755-2.4076-4.351-6.0191-4.152-5.2962 0-6.5 4.943-6.5 7.3158 0 2.5718 1.6864 6.7255 7.2229 6.7255 3.6098 0 5.5366-2.1755 5.777-4.351z"/><path d="m323.77 247.4c3.6927 0 8.3704-0.79591 11.324-1.9898 4.4322-1.7925 4.9247-4.7788 4.9247-7.9641v-17.12h-11.078v16.325c0 0.79591 0 1.7925-0.9866 2.5884-0.73622 0.79592-1.9682 1.7908-4.9214 1.7908h0.49247c-2.9548 0-4.1852-0.99489-4.9247-1.7908-0.98328-0.79591-0.98328-1.7925-0.98328-2.5884v-16.325h-11.078v17.12c0 3.1853 0.49247 6.1716 4.923 7.9641 2.9548 1.1939 7.6325 1.9898 11.324 1.9898z"/><path d="m402.68 239.2-3.2981-7.7983-3.2997 7.7983zm2.2849 5.7472h-11.166l-0.76276 2.2568h-11.418l12.434-26.884h10.912l12.433 26.884h-11.672z"/><path d="m513.57 226.7s-6.4021-0.79757-6.893 6.9676c-0.24707 6.9676 5.908 7.3655 5.908 7.3655s7.8779 1.3945 7.8779-7.7635c0-6.9676-6.8929-6.5696-6.8929-6.5696m0 20.505c-14.033 0-17.971-5.9727-17.971-13.338 0-7.7651 5.908-13.537 17.971-13.537 12.061 0 17.969 5.772 17.969 13.537 0 7.3655-3.9381 13.338-17.969 13.338"/><path d="m365.19 231.41h-10.657v-4.1039h11.164c2.0296 0 2.0296 4.1039-0.50739 4.1039m0 9.6455h-10.657v-4.1056h11.164c2.0296 0 2.0296 4.1056-0.50739 4.1056m9.8975-8.8247c1.7759-1.232 2.7907-2.4624 2.7907-4.9247 0-2.2584-1.2685-4.5151-4.0592-5.7455-2.7923-1.232-6.0921-1.232-9.3885-1.232h-20.556v26.882h19.286c3.8071 0 8.8811 0 12.181-1.436 3.0444-1.436 4.0608-4.1039 4.0608-6.3624 0-3.2831-0.2537-4.5135-4.3145-7.1815"/><path d="m443.69 231.13h-9.8328v-3.6711h10.085c2.018 0 2.018 3.6711-0.25205 3.6711m6.3026-9.1746c-3.5302-1.4277-8.0686-1.4277-12.101-1.4277h-16.64v26.506h12.857v-9.1762h6.3026c4.0343 0 8.0686-0.40625 11.345-2.0379 3.0261-1.6316 3.2782-4.4853 3.2782-6.9327 0-2.8537-1.2602-5.5034-5.0424-6.9311"/><path d="m478.49 230.17h-9.8975v-3.6927h10.151c2.0296 0 2.0296 3.6927-0.2537 3.6927m13.958-1.8472c0-2.4624-1.5238-4.9247-5.0773-6.3607-3.5518-1.6416-6.0887-1.6416-9.6422-1.6416h-19.793v26.882h10.657v-10.261h4.0608l6.8515 10.261h12.434l-6.8515-10.876c5.0756-1.4376 7.3606-2.4624 7.3606-8.0039"/></g><path d="m539.59 224.54h-0.52397v-1.5272c0.12767-0.0112 0.28188-0.0249 0.52397-0.0249 0.80753 0 1.0977 0.38801 1.0977 0.78098 0 0.56212-0.50242 0.77105-1.0977 0.77105m0.96504 0.29349v-0.0414c0.49911-0.13597 0.8921-0.50408 0.8921-1.0894 0-0.43444-0.14593-0.74119-0.42118-0.94183-0.27194-0.20229-0.71798-0.34157-1.4028-0.34157-0.53559 0-0.89872 0.0531-1.2801 0.10608v4.5234h0.72296v-1.9434h0.49578c0.58367 0 0.87385 0.21721 0.98163 0.79591 0.0862 0.59196 0.19732 1.0082 0.31007 1.1474h0.76109c-0.0846-0.13929-0.18903-0.41121-0.29514-1.1159-0.0912-0.66492-0.3648-1.0297-0.76442-1.0994m-0.71798 3.3047c-1.7958 0-3.2583-1.5222-3.2583-3.444 0-1.8986 1.4625-3.4291 3.2467-3.4291h0.0112c1.8074 0 3.25 1.5305 3.25 3.4473 0 1.9036-1.4426 3.4274-3.25 3.4257m0-7.4998h-0.0112c-2.2219 0-4.021 1.8041-4.021 4.0558 0 2.28 1.7991 4.0608 4.021 4.0608 2.2352 0 3.9978-1.7809 3.9978-4.0608 0-2.2518-1.7626-4.0558-3.9862-4.0558"/></g></g></svg>
